<svg id="svg" version="1.1" xmlns="http://www.w3.org/2000/svg" xmlns:xlink="http://www.w3.org/1999/xlink" width="400" height="27.066666666666666" viewBox="0, 0, 400,27.066666666666666"><g id="svgg"><path id="path0" d="M-0.000 13.332 L 0.000 26.667 95.667 26.667 C 159.333 26.667,191.333 26.722,191.333 26.833 C 191.333 26.944,226.222 27.000,295.667 27.000 L 400.000 27.000 400.000 13.667 L 400.000 0.333 394.250 0.333 C 390.875 0.333,388.500 0.396,388.500 0.486 C 388.500 0.570,388.237 0.618,387.917 0.593 C 387.596 0.567,387.333 0.616,387.333 0.702 C 387.333 0.787,387.165 0.844,386.958 0.827 C 386.752 0.810,386.546 0.810,386.500 0.828 C 386.454 0.845,385.933 0.891,385.343 0.930 C 384.752 0.969,384.227 1.057,384.176 1.126 C 384.074 1.263,383.280 1.353,382.250 1.345 C 381.423 1.339,380.796 1.471,380.894 1.630 C 380.934 1.696,380.487 1.750,379.900 1.750 C 379.314 1.750,378.833 1.799,378.833 1.859 C 378.833 1.920,378.684 1.930,378.502 1.882 C 378.321 1.835,378.039 1.854,377.877 1.924 C 377.716 1.995,377.143 2.076,376.605 2.106 C 376.067 2.135,375.535 2.235,375.423 2.328 C 375.311 2.421,375.180 2.457,375.131 2.409 C 375.082 2.360,374.538 2.401,373.922 2.499 C 372.688 2.696,369.421 3.045,368.955 3.030 C 368.782 3.024,368.706 3.096,368.772 3.203 C 368.850 3.328,368.720 3.352,368.359 3.280 C 368.023 3.213,367.833 3.241,367.833 3.359 C 367.833 3.477,367.621 3.509,367.246 3.448 C 366.923 3.396,366.691 3.405,366.730 3.468 C 366.769 3.532,366.307 3.583,365.704 3.583 C 365.043 3.583,364.524 3.667,364.397 3.794 C 364.252 3.938,363.921 3.972,363.343 3.902 C 362.879 3.845,362.500 3.864,362.500 3.944 C 362.500 4.024,361.961 4.106,361.302 4.127 C 360.626 4.149,360.053 4.248,359.986 4.355 C 359.917 4.468,359.693 4.501,359.435 4.436 C 359.196 4.376,359.000 4.390,359.000 4.468 C 359.000 4.545,358.775 4.576,358.500 4.536 C 358.225 4.495,358.000 4.529,358.000 4.611 C 358.000 4.693,357.700 4.743,357.333 4.722 C 356.967 4.702,356.667 4.756,356.667 4.842 C 356.667 5.077,356.040 5.033,355.951 4.792 C 355.892 4.630,355.823 4.636,355.646 4.816 C 355.501 4.963,355.493 5.006,355.625 4.931 C 355.740 4.867,355.833 4.893,355.833 4.990 C 355.833 5.087,355.604 5.167,355.323 5.167 C 354.960 5.167,354.850 5.107,354.939 4.958 C 355.024 4.816,354.975 4.822,354.783 4.978 C 354.628 5.103,354.351 5.167,354.168 5.119 C 353.984 5.071,353.833 5.088,353.833 5.157 C 353.833 5.225,353.412 5.296,352.897 5.313 C 352.381 5.329,351.825 5.415,351.660 5.504 C 351.455 5.614,351.340 5.604,351.296 5.472 C 351.256 5.351,351.065 5.323,350.776 5.395 C 350.525 5.458,350.360 5.575,350.409 5.654 C 350.458 5.734,350.238 5.739,349.915 5.666 C 349.595 5.594,349.333 5.592,349.333 5.663 C 349.333 5.806,348.346 5.958,346.500 6.097 C 345.813 6.149,345.137 6.230,345.000 6.276 C 344.863 6.323,344.364 6.386,343.891 6.416 C 343.419 6.446,342.872 6.557,342.677 6.661 C 342.481 6.766,342.174 6.805,341.994 6.748 C 341.808 6.689,341.667 6.721,341.667 6.822 C 341.667 6.920,341.587 7.000,341.490 7.000 C 341.393 7.000,341.361 6.924,341.418 6.831 C 341.542 6.631,339.668 6.799,339.438 7.008 C 339.358 7.081,339.182 7.098,339.046 7.046 C 338.911 6.994,338.748 7.036,338.684 7.138 C 338.621 7.241,338.122 7.340,337.576 7.358 C 337.030 7.376,336.508 7.431,336.417 7.481 C 336.325 7.530,336.040 7.549,335.783 7.522 C 335.527 7.495,335.209 7.563,335.077 7.672 C 334.945 7.781,334.654 7.825,334.429 7.768 C 334.204 7.712,333.979 7.733,333.928 7.815 C 333.877 7.898,333.441 7.974,332.959 7.984 C 331.370 8.018,330.598 8.122,330.535 8.312 C 330.500 8.416,330.324 8.500,330.143 8.500 C 329.962 8.500,329.850 8.441,329.895 8.369 C 329.939 8.297,329.362 8.341,328.613 8.467 C 327.863 8.593,327.046 8.700,326.797 8.706 C 326.547 8.711,326.372 8.762,326.408 8.819 C 326.443 8.876,326.178 8.895,325.819 8.861 C 325.425 8.823,325.167 8.869,325.167 8.978 C 325.167 9.101,325.035 9.108,324.756 9.002 C 324.497 8.904,324.309 8.905,324.246 9.006 C 324.192 9.095,323.893 9.167,323.583 9.167 C 323.273 9.167,322.970 9.248,322.908 9.347 C 322.847 9.446,322.622 9.483,322.409 9.430 C 322.195 9.376,321.981 9.396,321.932 9.475 C 321.884 9.553,321.150 9.623,320.301 9.631 C 319.452 9.639,318.733 9.717,318.704 9.805 C 318.675 9.893,318.513 9.929,318.344 9.884 C 318.176 9.840,317.993 9.876,317.939 9.964 C 317.882 10.056,317.560 10.072,317.170 10.001 C 316.759 9.926,316.500 9.941,316.500 10.042 C 316.500 10.132,316.313 10.170,316.083 10.126 C 315.854 10.082,315.667 10.112,315.667 10.193 C 315.667 10.274,315.479 10.293,315.250 10.235 C 315.021 10.178,314.703 10.189,314.542 10.259 C 314.381 10.330,314.063 10.410,313.833 10.438 C 313.304 10.502,311.370 10.785,309.333 11.097 C 308.462 11.230,307.506 11.336,307.208 11.331 C 306.910 11.327,306.667 11.406,306.667 11.507 C 306.667 11.632,306.376 11.654,305.750 11.576 C 305.203 11.508,304.833 11.525,304.833 11.620 C 304.833 11.804,304.721 11.817,302.793 11.846 C 301.985 11.859,301.377 11.935,301.428 12.018 C 301.478 12.100,301.253 12.167,300.927 12.167 C 300.600 12.167,300.333 12.223,300.332 12.292 C 300.332 12.360,299.919 12.423,299.416 12.430 C 298.912 12.438,298.308 12.546,298.073 12.672 C 297.738 12.851,297.578 12.858,297.330 12.703 C 297.073 12.543,296.985 12.556,296.863 12.775 C 296.757 12.963,296.556 13.022,296.193 12.968 C 295.908 12.927,295.641 12.973,295.601 13.071 C 295.556 13.179,295.521 13.168,295.513 13.042 C 295.497 12.790,294.833 12.759,294.833 13.010 C 294.833 13.107,294.761 13.142,294.674 13.088 C 294.468 12.960,291.619 13.312,291.504 13.479 C 291.456 13.548,291.022 13.615,290.540 13.627 C 290.058 13.639,289.578 13.702,289.473 13.767 C 289.355 13.840,289.327 13.811,289.401 13.692 C 289.466 13.587,289.440 13.500,289.343 13.500 C 289.246 13.500,289.167 13.565,289.167 13.645 C 289.167 13.795,286.878 14.132,285.026 14.254 C 284.441 14.293,283.876 14.390,283.772 14.470 C 283.668 14.550,283.181 14.618,282.688 14.622 C 282.120 14.626,281.741 14.712,281.649 14.856 C 281.570 14.981,281.504 15.008,281.502 14.917 C 281.501 14.825,281.277 14.742,281.005 14.733 C 280.733 14.723,280.549 14.778,280.597 14.856 C 280.645 14.933,280.568 14.952,280.425 14.897 C 280.283 14.842,280.035 14.850,279.875 14.914 C 279.715 14.978,279.142 15.063,278.603 15.102 C 278.064 15.142,277.555 15.216,277.472 15.267 C 277.390 15.318,276.818 15.392,276.203 15.432 C 275.587 15.471,275.058 15.578,275.027 15.669 C 274.997 15.761,274.907 15.796,274.828 15.747 C 274.634 15.627,271.667 16.030,271.667 16.176 C 271.667 16.239,271.198 16.305,270.625 16.323 C 268.937 16.373,267.500 16.521,267.500 16.644 C 267.500 16.707,267.181 16.734,266.792 16.703 C 266.382 16.671,266.167 16.705,266.282 16.786 C 266.398 16.867,266.053 16.934,265.449 16.949 C 264.881 16.962,263.967 17.059,263.417 17.164 C 262.867 17.269,262.107 17.309,261.729 17.254 C 261.197 17.175,261.019 17.211,260.942 17.410 C 260.873 17.590,260.614 17.667,260.079 17.667 C 259.131 17.667,256.968 18.001,256.770 18.178 C 256.690 18.250,256.488 18.225,256.322 18.121 C 256.094 17.979,255.923 17.985,255.622 18.146 C 255.403 18.263,254.799 18.372,254.279 18.388 C 253.760 18.404,253.335 18.460,253.334 18.514 C 253.334 18.567,253.240 18.614,253.125 18.618 C 253.010 18.621,252.592 18.676,252.196 18.739 C 251.716 18.815,251.392 18.785,251.228 18.648 C 251.032 18.486,250.992 18.487,251.032 18.652 C 251.067 18.792,250.812 18.880,250.260 18.921 C 249.219 18.997,248.133 19.175,247.917 19.305 C 247.825 19.360,247.534 19.382,247.269 19.354 C 246.999 19.326,246.726 19.401,246.647 19.527 C 246.541 19.693,246.504 19.697,246.503 19.542 C 246.499 19.293,245.897 19.261,245.748 19.503 C 245.691 19.596,245.580 19.633,245.502 19.585 C 245.389 19.515,244.029 19.681,241.546 20.070 C 241.435 20.087,241.291 20.154,241.227 20.217 C 241.049 20.395,240.333 20.355,240.333 20.167 C 240.333 20.075,240.254 20.000,240.157 20.000 C 240.060 20.000,240.022 20.068,240.074 20.151 C 240.125 20.234,240.017 20.263,239.833 20.215 C 239.649 20.167,239.402 20.207,239.284 20.305 C 239.086 20.470,237.542 20.664,236.453 20.662 C 236.198 20.661,235.833 20.744,235.643 20.846 C 235.452 20.948,234.928 21.029,234.477 21.025 C 233.992 21.022,233.699 21.085,233.758 21.180 C 233.820 21.280,233.601 21.300,233.179 21.233 C 232.795 21.171,232.500 21.191,232.500 21.279 C 232.500 21.364,232.237 21.402,231.917 21.365 C 231.560 21.323,231.333 21.369,231.333 21.482 C 231.333 21.583,231.183 21.667,231.000 21.667 C 230.817 21.667,230.667 21.592,230.667 21.500 C 230.667 21.408,230.587 21.333,230.490 21.333 C 230.393 21.333,230.367 21.419,230.432 21.524 C 230.515 21.659,230.418 21.682,230.101 21.603 C 229.853 21.541,229.565 21.543,229.459 21.609 C 229.352 21.674,228.793 21.716,228.216 21.700 C 227.448 21.680,227.167 21.731,227.167 21.891 C 227.167 22.039,227.005 22.085,226.665 22.035 C 226.389 21.995,226.066 22.043,225.946 22.142 C 225.826 22.242,225.302 22.307,224.781 22.287 C 224.259 22.266,223.812 22.312,223.787 22.389 C 223.762 22.465,223.259 22.548,222.670 22.572 C 222.050 22.598,221.573 22.698,221.536 22.809 C 221.501 22.914,221.310 22.995,221.111 22.988 C 220.761 22.977,220.761 22.972,221.083 22.833 C 221.550 22.633,221.257 22.639,220.000 22.857 C 219.404 22.960,218.504 23.035,218.000 23.022 C 217.310 23.006,217.145 23.044,217.333 23.178 C 217.531 23.318,217.504 23.333,217.208 23.250 C 216.738 23.117,216.126 23.300,216.268 23.530 C 216.336 23.639,216.248 23.662,216.029 23.592 C 215.838 23.532,215.248 23.561,214.716 23.657 C 214.185 23.754,213.112 23.878,212.333 23.933 C 211.554 23.988,210.855 24.071,210.780 24.117 C 210.622 24.214,209.150 24.374,208.417 24.374 C 208.142 24.374,207.865 24.456,207.801 24.557 C 207.738 24.657,207.381 24.717,207.010 24.690 C 206.608 24.661,206.333 24.714,206.333 24.821 C 206.333 24.919,206.165 24.995,205.958 24.988 C 205.601 24.977,205.599 24.970,205.917 24.833 C 206.235 24.697,206.233 24.690,205.875 24.678 C 205.669 24.672,205.500 24.745,205.500 24.840 C 205.500 24.935,205.219 25.017,204.875 25.022 C 202.754 25.052,202.167 25.102,202.167 25.250 C 202.167 25.433,201.943 25.452,198.708 25.549 C 196.775 25.607,196.498 25.582,196.487 25.349 C 196.478 25.177,196.444 25.157,196.390 25.292 C 196.268 25.594,195.500 25.556,195.500 25.248 C 195.500 25.043,195.299 25.008,194.422 25.057 C 193.829 25.090,193.374 25.069,193.411 25.010 C 193.447 24.951,193.228 24.932,192.925 24.967 C 192.621 25.003,192.322 24.950,192.260 24.849 C 192.198 24.749,191.983 24.674,191.782 24.683 C 191.442 24.699,191.445 24.709,191.833 24.833 C 192.239 24.963,192.240 24.967,191.870 24.983 C 191.661 24.993,191.448 24.892,191.397 24.760 C 191.330 24.584,191.203 24.558,190.924 24.664 C 190.702 24.748,190.479 24.746,190.391 24.657 C 190.307 24.574,189.742 24.486,189.135 24.461 C 188.529 24.437,188.071 24.354,188.118 24.277 C 188.165 24.201,188.027 24.161,187.810 24.189 C 187.594 24.217,187.311 24.174,187.183 24.094 C 187.018 23.991,186.986 24.009,187.075 24.153 C 187.167 24.302,187.050 24.343,186.642 24.304 C 186.335 24.274,186.099 24.165,186.119 24.061 C 186.143 23.929,185.978 23.911,185.577 24.001 C 185.260 24.073,185.000 24.083,185.000 24.024 C 185.000 23.912,184.509 23.838,183.458 23.793 C 183.115 23.778,182.833 23.715,182.833 23.651 C 182.833 23.588,182.571 23.506,182.250 23.468 C 181.929 23.431,181.667 23.463,181.667 23.541 C 181.667 23.742,181.115 23.622,180.917 23.378 C 180.812 23.249,180.220 23.161,179.333 23.142 C 178.554 23.125,177.804 23.054,177.667 22.984 C 177.163 22.729,174.925 22.474,174.861 22.666 C 174.819 22.794,174.732 22.790,174.568 22.654 C 174.440 22.548,174.147 22.497,173.918 22.541 C 173.688 22.585,173.500 22.563,173.500 22.492 C 173.500 22.421,173.069 22.328,172.542 22.286 C 172.015 22.244,171.302 22.133,170.958 22.039 C 170.607 21.943,170.333 21.934,170.333 22.018 C 170.333 22.100,170.183 22.167,170.000 22.167 C 169.817 22.167,169.667 22.094,169.667 22.005 C 169.667 21.916,169.542 21.892,169.389 21.950 C 169.193 22.025,169.150 21.995,169.242 21.846 C 169.343 21.683,169.180 21.654,168.520 21.719 C 168.052 21.766,167.626 21.735,167.574 21.651 C 167.522 21.567,167.304 21.543,167.089 21.597 C 166.874 21.651,166.541 21.611,166.348 21.508 C 166.156 21.405,165.660 21.314,165.246 21.306 C 164.832 21.298,164.455 21.229,164.408 21.153 C 164.361 21.077,164.220 21.054,164.095 21.102 C 163.970 21.150,163.279 21.097,162.559 20.984 C 161.839 20.870,160.987 20.763,160.667 20.744 C 159.271 20.664,157.000 20.271,157.000 20.110 C 157.000 19.999,156.926 20.008,156.800 20.133 C 156.547 20.386,155.667 20.396,155.667 20.146 C 155.667 20.026,155.485 19.995,155.167 20.058 C 154.869 20.118,154.667 20.089,154.667 19.986 C 154.667 19.891,154.596 19.858,154.509 19.911 C 154.422 19.965,153.840 19.926,153.217 19.823 C 152.593 19.721,151.783 19.637,151.417 19.635 C 150.924 19.633,150.837 19.599,151.083 19.504 C 151.552 19.323,150.766 19.189,150.159 19.347 C 149.926 19.408,148.974 19.326,148.044 19.166 C 147.114 19.007,146.151 18.914,145.902 18.962 C 145.632 19.014,145.491 18.983,145.551 18.886 C 145.610 18.791,145.374 18.730,144.976 18.737 C 144.605 18.744,144.269 18.698,144.230 18.635 C 144.191 18.571,143.794 18.522,143.348 18.525 C 142.902 18.529,142.383 18.449,142.195 18.349 C 142.007 18.248,141.680 18.193,141.468 18.227 C 141.257 18.260,140.915 18.225,140.708 18.148 C 140.448 18.051,140.333 18.070,140.331 18.212 C 140.329 18.359,140.288 18.354,140.187 18.193 C 140.107 18.068,139.834 17.992,139.564 18.021 C 139.300 18.048,138.989 18.013,138.873 17.941 C 138.758 17.870,138.514 17.859,138.332 17.917 C 138.149 17.975,138.000 17.950,138.000 17.861 C 138.000 17.718,137.274 17.640,135.792 17.624 C 135.540 17.621,135.332 17.536,135.331 17.434 C 135.329 17.333,135.256 17.362,135.167 17.500 C 135.078 17.638,135.004 17.664,135.003 17.558 C 135.001 17.445,134.778 17.383,134.458 17.407 C 134.160 17.429,133.878 17.389,133.830 17.317 C 133.721 17.154,132.270 17.001,130.793 16.997 C 130.174 16.996,129.677 16.940,129.687 16.872 C 129.735 16.563,129.636 16.520,129.230 16.674 C 128.924 16.791,128.724 16.784,128.564 16.651 C 128.438 16.546,128.150 16.496,127.923 16.540 C 127.678 16.586,127.551 16.552,127.611 16.455 C 127.673 16.355,127.477 16.319,127.109 16.362 C 126.777 16.401,126.482 16.363,126.454 16.277 C 126.425 16.192,125.974 16.126,125.451 16.131 C 124.888 16.136,124.500 16.067,124.500 15.963 C 124.500 15.849,124.177 15.820,123.586 15.881 C 123.052 15.936,122.628 15.906,122.569 15.810 C 122.512 15.719,122.215 15.666,121.909 15.692 C 121.602 15.718,121.297 15.686,121.231 15.620 C 121.013 15.402,120.302 15.481,120.435 15.708 C 120.502 15.823,120.383 15.767,120.171 15.583 C 119.895 15.345,119.764 15.310,119.712 15.458 C 119.672 15.573,119.566 15.667,119.476 15.667 C 119.387 15.667,119.352 15.605,119.398 15.530 C 119.444 15.455,119.270 15.425,119.011 15.463 C 118.752 15.501,118.490 15.452,118.430 15.355 C 118.367 15.253,118.103 15.221,117.810 15.280 C 117.487 15.344,117.253 15.307,117.173 15.177 C 117.101 15.060,116.697 14.972,116.235 14.972 C 115.788 14.972,115.347 14.924,115.253 14.866 C 114.980 14.694,113.116 14.512,111.605 14.509 C 111.343 14.509,111.028 14.426,110.907 14.325 C 110.786 14.224,110.239 14.129,109.693 14.113 C 109.147 14.097,108.731 14.031,108.770 13.968 C 108.809 13.904,108.483 13.854,108.046 13.856 C 107.608 13.858,106.905 13.781,106.483 13.685 C 106.062 13.588,105.124 13.468,104.400 13.417 C 103.676 13.366,102.971 13.294,102.833 13.257 C 102.600 13.194,101.477 13.059,99.917 12.906 C 98.405 12.758,97.579 12.628,97.500 12.525 C 97.454 12.466,97.117 12.405,96.750 12.391 C 96.383 12.377,95.727 12.351,95.292 12.333 C 94.856 12.316,94.460 12.237,94.411 12.158 C 94.363 12.079,94.213 12.057,94.078 12.108 C 93.943 12.160,93.702 12.145,93.542 12.075 C 93.264 11.953,92.147 11.832,90.792 11.776 C 90.448 11.762,90.167 11.685,90.167 11.606 C 90.167 11.527,89.942 11.495,89.667 11.536 C 89.325 11.586,89.167 11.539,89.167 11.388 C 89.167 11.112,88.470 11.097,88.200 11.367 C 88.090 11.477,88.000 11.495,87.999 11.408 C 87.999 11.321,87.568 11.233,87.042 11.213 C 86.517 11.192,86.061 11.098,86.029 11.004 C 85.998 10.910,85.899 10.833,85.810 10.833 C 85.720 10.833,85.693 10.908,85.750 11.000 C 85.807 11.092,85.696 11.167,85.505 11.167 C 85.313 11.167,85.118 11.068,85.072 10.946 C 85.018 10.808,84.805 10.753,84.494 10.799 C 84.216 10.840,84.000 10.795,84.000 10.697 C 84.000 10.581,83.824 10.574,83.467 10.676 C 83.128 10.773,82.897 10.769,82.833 10.665 C 82.777 10.575,82.237 10.483,81.632 10.459 C 81.027 10.436,80.556 10.379,80.584 10.333 C 80.612 10.287,80.211 10.254,79.692 10.260 C 79.174 10.265,78.660 10.203,78.550 10.121 C 78.441 10.040,78.178 9.991,77.967 10.012 C 77.756 10.033,77.433 9.985,77.250 9.905 C 77.067 9.826,76.605 9.758,76.225 9.755 C 75.845 9.752,75.568 9.694,75.610 9.625 C 75.652 9.556,75.457 9.500,75.177 9.500 C 74.882 9.500,74.665 9.588,74.662 9.708 C 74.659 9.824,74.581 9.787,74.487 9.625 C 74.298 9.302,73.833 9.227,73.833 9.520 C 73.833 9.650,73.756 9.643,73.583 9.500 C 73.433 9.375,73.129 9.332,72.825 9.393 C 72.510 9.456,72.355 9.433,72.418 9.331 C 72.474 9.241,72.346 9.161,72.135 9.154 C 71.923 9.147,71.600 9.110,71.417 9.072 C 70.953 8.976,70.514 8.976,69.833 9.071 C 69.296 9.145,69.290 9.142,69.750 9.021 C 70.232 8.894,70.221 8.885,69.440 8.757 C 68.823 8.655,68.591 8.678,68.466 8.853 C 68.335 9.037,68.319 9.029,68.387 8.814 C 68.460 8.585,68.255 8.529,67.028 8.439 C 66.233 8.382,65.321 8.296,65.000 8.249 C 64.554 8.184,64.495 8.201,64.750 8.320 C 65.070 8.470,65.069 8.477,64.708 8.488 C 64.502 8.495,64.333 8.427,64.333 8.338 C 64.333 8.244,64.110 8.220,63.807 8.280 C 63.492 8.343,63.321 8.322,63.379 8.227 C 63.433 8.140,63.326 8.058,63.141 8.044 C 62.957 8.030,62.231 7.928,61.528 7.818 C 60.825 7.707,60.035 7.630,59.772 7.646 C 59.509 7.662,59.205 7.601,59.097 7.511 C 58.988 7.421,58.266 7.301,57.491 7.244 C 56.717 7.187,55.708 7.067,55.250 6.978 C 54.792 6.889,53.929 6.778,53.333 6.733 C 52.737 6.688,51.749 6.580,51.138 6.493 C 50.526 6.405,49.895 6.384,49.735 6.445 C 49.522 6.527,49.482 6.498,49.582 6.336 C 49.671 6.191,49.654 6.155,49.530 6.231 C 49.302 6.373,46.667 5.977,46.667 5.802 C 46.667 5.733,46.557 5.719,46.424 5.770 C 46.290 5.822,45.399 5.741,44.444 5.592 C 43.490 5.442,42.643 5.338,42.563 5.360 C 42.352 5.419,40.633 5.165,40.441 5.047 C 40.352 4.992,39.860 4.934,39.348 4.918 C 38.836 4.903,38.284 4.831,38.123 4.760 C 37.961 4.688,37.679 4.668,37.497 4.716 C 37.315 4.763,37.198 4.751,37.236 4.689 C 37.275 4.626,36.994 4.573,36.612 4.569 C 35.965 4.563,35.506 4.504,34.126 4.248 C 33.457 4.124,32.099 3.993,31.375 3.984 C 31.077 3.980,30.833 3.912,30.833 3.834 C 30.833 3.755,30.421 3.733,29.917 3.785 C 29.353 3.844,29.000 3.816,29.000 3.713 C 29.000 3.621,28.813 3.582,28.583 3.626 C 28.323 3.676,28.167 3.629,28.167 3.502 C 28.167 3.365,27.949 3.319,27.500 3.362 C 27.133 3.397,26.833 3.370,26.833 3.301 C 26.833 3.233,26.720 3.221,26.581 3.274 C 26.443 3.327,26.232 3.290,26.113 3.191 C 25.986 3.086,25.707 3.063,25.439 3.134 C 24.822 3.299,23.548 3.178,23.855 2.983 C 24.094 2.832,23.568 2.760,22.604 2.813 C 22.340 2.827,22.022 2.754,21.897 2.650 C 21.772 2.547,21.448 2.494,21.177 2.534 C 20.906 2.574,20.716 2.555,20.754 2.493 C 20.841 2.353,18.856 2.133,18.650 2.261 C 18.567 2.311,18.500 2.285,18.500 2.201 C 18.500 2.053,16.451 1.795,15.057 1.766 C 14.676 1.758,14.399 1.695,14.442 1.626 C 14.509 1.517,13.677 1.450,11.958 1.426 C 11.706 1.423,11.500 1.378,11.500 1.327 C 11.500 1.276,11.227 1.265,10.894 1.304 C 10.473 1.353,10.323 1.318,10.404 1.188 C 10.481 1.063,10.307 0.990,9.885 0.969 C 9.195 0.936,8.678 0.887,8.417 0.830 C 8.325 0.810,8.175 0.812,8.083 0.834 C 7.667 0.933,6.592 0.816,6.496 0.661 C 6.438 0.566,5.897 0.472,5.295 0.453 C 4.693 0.433,4.234 0.362,4.275 0.294 C 4.316 0.227,4.121 0.217,3.842 0.273 C 3.538 0.334,3.333 0.306,3.333 0.203 C 3.333 0.097,2.691 0.024,1.667 0.014 L -0.000 -0.003 -0.000 13.332 " stroke="none" fill="#2c344c" fill-rule="evenodd"></path><path id="path1" d="M392.958 0.291 C 394.265 0.319,396.402 0.319,397.708 0.291 C 399.015 0.263,397.946 0.240,395.333 0.240 C 392.721 0.240,391.652 0.263,392.958 0.291 M6.500 0.732 C 6.500 0.768,6.763 0.828,7.083 0.865 C 7.404 0.902,7.667 0.873,7.667 0.800 C 7.667 0.727,7.404 0.667,7.083 0.667 C 6.763 0.667,6.500 0.696,6.500 0.732 M10.542 1.282 C 10.702 1.323,10.965 1.323,11.125 1.282 C 11.285 1.240,11.154 1.205,10.833 1.205 C 10.512 1.205,10.381 1.240,10.542 1.282 M23.855 2.979 C 23.564 3.169,24.785 3.304,25.355 3.144 C 25.572 3.083,25.637 3.023,25.500 3.010 C 25.363 2.998,24.988 2.952,24.667 2.908 C 24.346 2.865,23.981 2.896,23.855 2.979 M29.208 3.782 C 29.369 3.823,29.631 3.823,29.792 3.782 C 29.952 3.740,29.821 3.705,29.500 3.705 C 29.179 3.705,29.048 3.740,29.208 3.782 M363.667 3.833 C 363.667 3.925,363.817 4.000,364.000 4.000 C 364.183 4.000,364.333 3.925,364.333 3.833 C 364.333 3.742,364.183 3.667,364.000 3.667 C 363.817 3.667,363.667 3.742,363.667 3.833 M354.760 5.017 C 354.811 5.099,355.086 5.167,355.371 5.167 C 355.656 5.167,355.837 5.115,355.773 5.051 C 355.598 4.876,354.654 4.844,354.760 5.017 M48.847 6.227 C 48.885 6.259,49.142 6.337,49.417 6.398 C 49.782 6.480,49.849 6.464,49.667 6.341 C 49.442 6.189,48.680 6.082,48.847 6.227 M344.758 6.321 C 344.720 6.381,344.910 6.448,345.178 6.468 C 345.447 6.489,345.667 6.475,345.667 6.439 C 345.667 6.318,344.827 6.209,344.758 6.321 M337.167 7.336 C 336.991 7.451,337.090 7.468,337.500 7.392 C 338.219 7.261,338.354 7.166,337.819 7.169 C 337.598 7.171,337.304 7.246,337.167 7.336 M63.417 8.167 C 63.360 8.258,63.464 8.333,63.647 8.333 C 63.830 8.333,64.027 8.258,64.083 8.167 C 64.140 8.075,64.036 8.000,63.853 8.000 C 63.670 8.000,63.473 8.075,63.417 8.167 M69.750 9.000 C 69.289 9.117,69.282 9.129,69.667 9.144 C 69.896 9.154,70.196 9.089,70.333 9.000 C 70.617 8.817,70.470 8.817,69.750 9.000 M321.906 9.350 C 321.841 9.455,321.585 9.492,321.305 9.436 C 321.004 9.376,320.856 9.401,320.918 9.503 C 321.073 9.753,321.766 9.698,322.000 9.417 C 322.114 9.279,322.165 9.167,322.114 9.167 C 322.062 9.167,321.969 9.249,321.906 9.350 M322.333 9.333 C 322.333 9.425,322.446 9.500,322.583 9.500 C 322.721 9.500,322.833 9.425,322.833 9.333 C 322.833 9.242,322.721 9.167,322.583 9.167 C 322.446 9.167,322.333 9.242,322.333 9.333 M311.375 10.782 C 311.535 10.823,311.798 10.823,311.958 10.782 C 312.119 10.740,311.987 10.705,311.667 10.705 C 311.346 10.705,311.215 10.740,311.375 10.782 M305.833 11.523 C 305.833 11.602,306.021 11.667,306.250 11.667 C 306.479 11.667,306.667 11.638,306.667 11.603 C 306.667 11.568,306.479 11.503,306.250 11.459 C 306.021 11.415,305.833 11.444,305.833 11.523 M296.915 12.664 C 297.024 12.841,298.000 12.841,298.000 12.664 C 298.000 12.568,297.742 12.507,297.427 12.528 C 297.113 12.549,296.882 12.610,296.915 12.664 M295.752 12.836 C 295.807 12.926,296.086 13.000,296.371 13.000 C 297.001 13.000,296.937 12.917,296.200 12.776 C 295.856 12.711,295.688 12.733,295.752 12.836 M290.500 13.500 C 290.305 13.626,290.351 13.662,290.708 13.664 C 290.960 13.666,291.167 13.592,291.167 13.500 C 291.167 13.289,290.826 13.289,290.500 13.500 M117.167 15.190 C 117.167 15.269,117.354 15.333,117.583 15.333 C 117.813 15.333,118.000 15.305,118.000 15.269 C 118.000 15.234,117.813 15.170,117.583 15.126 C 117.354 15.082,117.167 15.111,117.167 15.190 M118.500 15.333 C 118.500 15.425,118.644 15.500,118.820 15.500 C 118.996 15.500,119.258 15.546,119.403 15.601 C 119.551 15.658,119.667 15.617,119.667 15.508 C 119.667 15.401,119.592 15.360,119.500 15.417 C 119.408 15.473,119.333 15.440,119.333 15.343 C 119.333 15.246,119.146 15.167,118.917 15.167 C 118.688 15.167,118.500 15.242,118.500 15.333 M271.167 16.167 C 271.167 16.258,271.279 16.333,271.417 16.333 C 271.554 16.333,271.667 16.258,271.667 16.167 C 271.667 16.075,271.554 16.000,271.417 16.000 C 271.279 16.000,271.167 16.075,271.167 16.167 M128.647 16.713 C 128.719 16.785,128.958 16.772,129.180 16.684 C 129.559 16.535,129.551 16.527,129.051 16.554 C 128.758 16.570,128.576 16.642,128.647 16.713 M129.722 16.783 C 129.722 16.910,129.918 17.000,130.194 17.000 C 130.454 17.000,130.667 16.934,130.667 16.852 C 130.667 16.771,130.454 16.673,130.194 16.635 C 129.882 16.589,129.722 16.639,129.722 16.783 M259.960 17.618 C 260.168 17.658,260.468 17.656,260.627 17.615 C 260.786 17.573,260.617 17.540,260.250 17.542 C 259.883 17.544,259.753 17.578,259.960 17.618 M145.583 18.833 C 145.527 18.925,145.630 19.000,145.814 19.000 C 145.997 19.000,146.193 18.925,146.250 18.833 C 146.307 18.742,146.203 18.667,146.020 18.667 C 145.836 18.667,145.640 18.742,145.583 18.833 M247.000 19.231 C 247.000 19.266,247.188 19.330,247.417 19.374 C 247.646 19.418,247.833 19.389,247.833 19.310 C 247.833 19.231,247.646 19.167,247.417 19.167 C 247.188 19.167,247.000 19.195,247.000 19.231 M155.667 20.196 C 155.667 20.271,155.892 20.333,156.167 20.333 C 156.442 20.333,156.667 20.304,156.667 20.269 C 156.667 20.233,156.442 20.171,156.167 20.131 C 155.892 20.091,155.667 20.120,155.667 20.196 M240.333 20.190 C 240.333 20.269,240.521 20.333,240.750 20.333 C 240.979 20.333,241.167 20.305,241.167 20.269 C 241.167 20.234,240.979 20.170,240.750 20.126 C 240.521 20.082,240.333 20.111,240.333 20.190 M169.667 22.000 C 169.667 22.092,169.817 22.167,170.000 22.167 C 170.183 22.167,170.333 22.092,170.333 22.000 C 170.333 21.908,170.183 21.833,170.000 21.833 C 169.817 21.833,169.667 21.908,169.667 22.000 M225.167 22.208 C 225.167 22.277,225.312 22.333,225.490 22.333 C 225.668 22.333,225.848 22.277,225.891 22.208 C 225.933 22.140,225.788 22.083,225.567 22.083 C 225.347 22.083,225.167 22.140,225.167 22.208 M176.167 22.833 C 175.823 22.943,175.809 22.969,176.083 22.981 C 176.267 22.989,176.529 22.922,176.667 22.833 C 176.959 22.645,176.756 22.645,176.167 22.833 M179.042 23.115 C 179.202 23.157,179.465 23.157,179.625 23.115 C 179.785 23.073,179.654 23.039,179.333 23.039 C 179.012 23.039,178.881 23.073,179.042 23.115 M181.105 23.465 C 181.060 23.538,181.168 23.608,181.345 23.622 C 181.522 23.635,181.667 23.576,181.667 23.490 C 181.667 23.300,181.219 23.281,181.105 23.465 M184.297 23.884 C 184.528 23.988,184.737 23.996,184.830 23.903 C 184.922 23.810,184.772 23.743,184.449 23.732 C 183.953 23.714,183.943 23.725,184.297 23.884 M186.104 24.201 C 186.208 24.369,187.121 24.375,187.224 24.208 C 187.266 24.140,187.013 24.080,186.661 24.076 C 186.310 24.071,186.059 24.128,186.104 24.201 M204.917 24.833 L 204.417 24.961 204.958 24.980 C 205.256 24.991,205.500 24.925,205.500 24.833 C 205.500 24.742,205.481 24.676,205.458 24.686 C 205.435 24.697,205.192 24.763,204.917 24.833 " stroke="none" fill="#2c3444" fill-rule="evenodd"></path><path id="path2" d="M50.042 6.282 C 50.202 6.323,50.465 6.323,50.625 6.282 C 50.785 6.240,50.654 6.205,50.333 6.205 C 50.012 6.205,49.881 6.240,50.042 6.282 M62.542 7.948 C 62.702 7.990,62.965 7.990,63.125 7.948 C 63.285 7.906,63.154 7.872,62.833 7.872 C 62.512 7.872,62.381 7.906,62.542 7.948 M311.375 10.615 C 311.535 10.657,311.798 10.657,311.958 10.615 C 312.119 10.573,311.987 10.539,311.667 10.539 C 311.346 10.539,311.215 10.573,311.375 10.615 M310.208 10.782 C 310.369 10.823,310.631 10.823,310.792 10.782 C 310.952 10.740,310.821 10.705,310.500 10.705 C 310.179 10.705,310.048 10.740,310.208 10.782 M93.708 11.948 C 93.869 11.990,94.131 11.990,94.292 11.948 C 94.452 11.906,94.321 11.872,94.000 11.872 C 93.679 11.872,93.548 11.906,93.708 11.948 M158.208 20.448 C 158.369 20.490,158.631 20.490,158.792 20.448 C 158.952 20.406,158.821 20.372,158.500 20.372 C 158.179 20.372,158.048 20.406,158.208 20.448 M236.042 20.615 C 236.202 20.657,236.465 20.657,236.625 20.615 C 236.785 20.573,236.654 20.539,236.333 20.539 C 236.012 20.539,235.881 20.573,236.042 20.615 M212.042 23.782 C 212.202 23.823,212.465 23.823,212.625 23.782 C 212.785 23.740,212.654 23.705,212.333 23.705 C 212.012 23.705,211.881 23.740,212.042 23.782 M0.000 26.833 C 0.000 26.944,31.972 27.000,95.583 27.000 C 159.194 27.000,191.167 26.944,191.167 26.833 C 191.167 26.722,159.194 26.667,95.583 26.667 C 31.972 26.667,0.000 26.722,0.000 26.833 " stroke="none" fill="#343434" fill-rule="evenodd"></path><path id="path3" d="M389.708 0.282 C 389.869 0.323,390.131 0.323,390.292 0.282 C 390.452 0.240,390.321 0.205,390.000 0.205 C 389.679 0.205,389.548 0.240,389.708 0.282 M385.269 0.803 C 385.222 0.878,385.405 0.907,385.675 0.868 C 385.946 0.828,386.167 0.767,386.167 0.731 C 386.167 0.604,385.351 0.670,385.269 0.803 M384.102 0.970 C 384.056 1.045,384.239 1.074,384.509 1.034 C 384.779 0.995,385.000 0.933,385.000 0.898 C 385.000 0.771,384.185 0.836,384.102 0.970 M375.000 2.167 L 374.583 2.300 375.032 2.317 C 375.279 2.326,375.527 2.258,375.583 2.167 C 375.700 1.977,375.592 1.977,375.000 2.167 M373.167 2.502 C 372.991 2.618,373.090 2.634,373.500 2.559 C 374.219 2.427,374.354 2.332,373.819 2.336 C 373.598 2.337,373.304 2.412,373.167 2.502 M360.375 4.115 C 360.535 4.157,360.798 4.157,360.958 4.115 C 361.119 4.073,360.988 4.039,360.667 4.039 C 360.346 4.039,360.215 4.073,360.375 4.115 M38.375 4.782 C 38.535 4.823,38.798 4.823,38.958 4.782 C 39.119 4.740,38.987 4.705,38.667 4.705 C 38.346 4.705,38.215 4.740,38.375 4.782 M40.917 5.158 C 41.431 5.298,42.610 5.382,42.486 5.271 C 42.448 5.237,41.967 5.167,41.417 5.115 C 40.759 5.054,40.588 5.069,40.917 5.158 M347.667 5.789 C 347.346 5.826,347.023 5.916,346.949 5.988 C 346.825 6.109,348.534 5.909,348.917 5.759 C 349.119 5.679,348.465 5.695,347.667 5.789 M46.875 5.948 C 47.035 5.990,47.298 5.990,47.458 5.948 C 47.619 5.906,47.487 5.872,47.167 5.872 C 46.846 5.872,46.715 5.906,46.875 5.948 M48.667 6.065 C 48.667 6.101,48.924 6.160,49.238 6.197 C 49.553 6.234,49.773 6.204,49.728 6.132 C 49.648 6.001,48.667 5.940,48.667 6.065 M335.105 7.465 C 335.060 7.538,335.281 7.567,335.595 7.530 C 335.909 7.494,336.167 7.434,336.167 7.398 C 336.167 7.273,335.186 7.335,335.105 7.465 M326.708 8.615 C 326.869 8.657,327.131 8.657,327.292 8.615 C 327.452 8.573,327.321 8.539,327.000 8.539 C 326.679 8.539,326.548 8.573,326.708 8.615 M323.208 9.115 C 323.369 9.157,323.631 9.157,323.792 9.115 C 323.952 9.073,323.821 9.039,323.500 9.039 C 323.179 9.039,323.048 9.073,323.208 9.115 M72.794 9.285 C 73.001 9.324,73.301 9.323,73.460 9.281 C 73.620 9.239,73.450 9.207,73.083 9.209 C 72.717 9.211,72.586 9.245,72.794 9.285 M89.167 11.398 C 89.167 11.434,89.424 11.494,89.738 11.530 C 90.053 11.567,90.273 11.538,90.228 11.465 C 90.148 11.335,89.167 11.273,89.167 11.398 M95.313 12.213 C 95.394 12.294,95.675 12.333,95.938 12.300 C 96.379 12.245,96.367 12.233,95.792 12.153 C 95.434 12.104,95.229 12.129,95.313 12.213 M299.208 12.282 C 299.369 12.323,299.631 12.323,299.792 12.282 C 299.952 12.240,299.821 12.205,299.500 12.205 C 299.179 12.205,299.048 12.240,299.208 12.282 M98.526 12.671 C 98.846 12.858,99.682 12.826,99.561 12.631 C 99.517 12.559,99.204 12.502,98.865 12.505 C 98.389 12.509,98.312 12.546,98.526 12.671 M101.875 13.115 C 102.035 13.157,102.298 13.157,102.458 13.115 C 102.619 13.073,102.487 13.039,102.167 13.039 C 101.846 13.039,101.715 13.073,101.875 13.115 M286.167 14.000 C 286.167 14.092,286.317 14.167,286.500 14.167 C 286.683 14.167,286.833 14.092,286.833 14.000 C 286.833 13.908,286.683 13.833,286.500 13.833 C 286.317 13.833,286.167 13.908,286.167 14.000 M287.375 13.948 C 287.535 13.990,287.798 13.990,287.958 13.948 C 288.119 13.906,287.987 13.872,287.667 13.872 C 287.346 13.872,287.215 13.906,287.375 13.948 M275.667 15.289 C 274.846 15.385,274.698 15.605,275.505 15.528 C 275.870 15.493,276.210 15.398,276.261 15.316 C 276.312 15.234,276.330 15.179,276.302 15.193 C 276.273 15.208,275.987 15.251,275.667 15.289 M266.542 16.615 C 266.702 16.657,266.965 16.657,267.125 16.615 C 267.285 16.573,267.154 16.539,266.833 16.539 C 266.512 16.539,266.381 16.573,266.542 16.615 M265.167 16.841 C 264.984 16.964,265.052 16.980,265.417 16.898 C 266.029 16.761,266.163 16.666,265.736 16.669 C 265.560 16.671,265.304 16.748,265.167 16.841 M139.542 17.948 C 139.702 17.990,139.965 17.990,140.125 17.948 C 140.285 17.906,140.154 17.872,139.833 17.872 C 139.512 17.872,139.381 17.906,139.542 17.948 M144.333 18.565 C 144.333 18.601,144.591 18.660,144.905 18.697 C 145.219 18.734,145.440 18.704,145.395 18.632 C 145.314 18.501,144.333 18.440,144.333 18.565 M251.375 18.615 C 251.535 18.657,251.798 18.657,251.958 18.615 C 252.119 18.573,251.987 18.539,251.667 18.539 C 251.346 18.539,251.215 18.573,251.375 18.615 M249.042 18.948 C 249.202 18.990,249.465 18.990,249.625 18.948 C 249.785 18.906,249.654 18.872,249.333 18.872 C 249.012 18.872,248.881 18.906,249.042 18.948 M147.833 19.064 C 147.833 19.099,148.021 19.164,148.250 19.207 C 148.479 19.251,148.667 19.223,148.667 19.144 C 148.667 19.065,148.479 19.000,148.250 19.000 C 148.021 19.000,147.833 19.029,147.833 19.064 M152.760 19.683 C 152.799 19.745,153.088 19.827,153.403 19.863 C 153.719 19.900,153.945 19.879,153.907 19.817 C 153.868 19.755,153.578 19.673,153.263 19.637 C 152.948 19.600,152.722 19.621,152.760 19.683 M232.441 21.128 C 232.397 21.199,232.655 21.228,233.014 21.194 C 233.373 21.160,233.667 21.102,233.667 21.066 C 233.667 20.942,232.520 21.000,232.441 21.128 M214.667 23.500 C 214.323 23.610,214.309 23.636,214.583 23.648 C 214.767 23.655,215.029 23.589,215.167 23.500 C 215.459 23.311,215.256 23.311,214.667 23.500 M199.250 25.500 L 198.583 25.619 199.167 25.623 C 199.487 25.625,199.975 25.570,200.250 25.500 C 200.928 25.327,200.214 25.327,199.250 25.500 M197.708 25.615 C 197.869 25.657,198.131 25.657,198.292 25.615 C 198.452 25.573,198.321 25.539,198.000 25.539 C 197.679 25.539,197.548 25.573,197.708 25.615 " stroke="none" fill="#2c3c4c" fill-rule="evenodd"></path><path id="path4" d="M44.875 5.615 C 45.035 5.657,45.298 5.657,45.458 5.615 C 45.619 5.573,45.487 5.539,45.167 5.539 C 44.846 5.539,44.715 5.573,44.875 5.615 M47.833 6.064 C 47.833 6.100,48.054 6.161,48.325 6.201 C 48.595 6.241,48.778 6.212,48.731 6.137 C 48.649 6.003,47.833 5.937,47.833 6.064 M303.435 11.803 C 303.389 11.878,303.572 11.907,303.842 11.868 C 304.112 11.828,304.333 11.767,304.333 11.731 C 304.333 11.604,303.518 11.670,303.435 11.803 M298.102 12.470 C 298.056 12.545,298.239 12.574,298.509 12.534 C 298.779 12.495,299.000 12.433,299.000 12.398 C 299.000 12.271,298.185 12.336,298.102 12.470 M103.042 13.282 C 103.202 13.323,103.465 13.323,103.625 13.282 C 103.785 13.240,103.654 13.205,103.333 13.205 C 103.013 13.205,102.881 13.240,103.042 13.282 M146.480 18.880 C 146.560 18.960,146.841 18.999,147.105 18.966 C 147.545 18.911,147.534 18.900,146.958 18.820 C 146.600 18.771,146.396 18.796,146.480 18.880 M151.833 19.564 C 151.833 19.600,152.054 19.661,152.325 19.701 C 152.595 19.741,152.778 19.712,152.731 19.637 C 152.649 19.503,151.833 19.437,151.833 19.564 M200.772 25.299 C 200.727 25.371,200.947 25.400,201.262 25.364 C 201.576 25.327,201.833 25.268,201.833 25.232 C 201.833 25.106,200.852 25.168,200.772 25.299 " stroke="none" fill="#30344c" fill-rule="evenodd"></path></g></svg>